HIERARCHY
ROOT Hips
{
    OFFSET 0.000000 0.000000 0.000000
    CHANNELS 6 Xposition Yposition Zposition Zrotation Xrotation Yrotation
    JOINT Spine
    {
        OFFSET -0.000000 14.517291 0.000000
        CHANNELS 3 Zrotation Xrotation Yrotation
        JOINT Spine1
        {
            OFFSET -0.000000 37.558300 0.000000
            CHANNELS 3 Zrotation Xrotation Yrotation
            JOINT Neck
            {
                OFFSET -0.000000 37.404057 3.400369
                CHANNELS 3 Zrotation Xrotation Yrotation
                JOINT Head
                {
                    OFFSET -0.000000 24.785618 -3.540803
                    CHANNELS 3 Zrotation Xrotation Yrotation
                    End Site
                    {
                        OFFSET -0.000000 35.408028 0.000000
                    }
                }
            }
            JOINT LeftShoulder
            {
                OFFSET 6.992933 33.973492 -0.192664
                CHANNELS 3 Zrotation Xrotation Yrotation
                JOINT LeftArm
                {
                    OFFSET 21.527611 0.000000 0.000000
                    CHANNELS 3 Zrotation Xrotation Yrotation
                    JOINT LeftForeArm
                    {
                        OFFSET 56.353916 0.000000 0.000000
                        CHANNELS 3 Zrotation Xrotation Yrotation
                        JOINT LeftHand
                        {
                            OFFSET 47.774071 0.000000 0.000000
                            CHANNELS 3 Zrotation Xrotation Yrotation
                            End Site
                            {
                                OFFSET 26.556021 0.000000 0.000000
                            }
                        }
                    }
                }
            }
            JOINT RightShoulder
            {
                OFFSET -7.065357 33.973492 -0.192664
                CHANNELS 3 Zrotation Xrotation Yrotation
                JOINT RightArm
                {
                    OFFSET -21.527611 0.000000 0.000000
                    CHANNELS 3 Zrotation Xrotation Yrotation
                    JOINT RightForeArm
                    {
                        OFFSET -56.353916 0.000000 0.000000
                        CHANNELS 3 Zrotation Xrotation Yrotation
                        JOINT RightHand
                        {
                            OFFSET -47.774071 0.000000 0.000000
                            CHANNELS 3 Zrotation Xrotation Yrotation
                            End Site
                            {
                                OFFSET -26.556021 0.000000 0.000000
                            }
                        }
                    }
                }
            }
        }
    }
    JOINT LeftUpLeg
    {
        OFFSET 17.704014 0.000000 0.000000
        CHANNELS 3 Zrotation Xrotation Yrotation
        JOINT LeftLeg
        {
            OFFSET -0.000000 -81.181816 0.000000
            CHANNELS 3 Zrotation Xrotation Yrotation
            JOINT LeftFoot
            {
                OFFSET -0.000000 -62.821102 0.000000
                CHANNELS 3 Zrotation Xrotation Yrotation
                JOINT LeftToeBase
                {
                    OFFSET -0.000000 -11.507608 26.556021
                    CHANNELS 3 Zrotation Xrotation Yrotation
                    End Site
                    {
                        OFFSET -0.000000 0.000000 7.081605
                    }
                }
            }
        }
    }
    JOINT RightUpLeg
    {
        OFFSET -17.704014 0.000000 0.000000
        CHANNELS 3 Zrotation Xrotation Yrotation
        JOINT RightLeg
        {
            OFFSET -0.000000 -81.181816 0.000000
            CHANNELS 3 Zrotation Xrotation Yrotation
            JOINT RightFoot
            {
                OFFSET -0.000000 -62.821102 0.000000
                CHANNELS 3 Zrotation Xrotation Yrotation
                JOINT RightToeBase
                {
                    OFFSET -0.000000 -11.507608 26.556021
                    CHANNELS 3 Zrotation Xrotation Yrotation
                    End Site
                    {
                        OFFSET -0.000000 0.000000 7.081605
                    }
                }
            }
        }
    }
}
MOTION
Frames:    10
Frame Time:    0.008333
-9.990622    150.748749    -10.839808    0.690196    1.327441    28.771852    -0.583183    2.910055    13.813169    -5.453804    -0.163047    4.592330    -0.351975    2.926306    -9.889602    13.007183    -3.067498    -8.067594    1.996610    2.164528    -6.552272    -42.709625    17.942316    -48.558743    -11.868028    -15.936401    -132.579239    2.439124    -40.164276    -6.571154    -6.436322    7.177928    7.704557    21.829866    16.584511    49.626404    -19.533459    -40.288574    -9.368381    17.739269    -37.737953    30.627468    -2.527406    -35.556694    -29.681551    -10.849426    24.093210    -24.213556    -9.938203    3.896944    27.982561    0.000000    0.000000    0.000000    4.938054    11.576892    -17.804998    2.804792    25.101929    -1.372405    -3.780439    -31.925690    -7.199307    0.000000    0.000000    0.000000    
-9.937171    150.733521    -10.810636    0.691027    1.289183    28.768044    -0.573600    2.913996    13.826625    -5.476504    -0.160568    4.596993    -0.343052    2.899597    -9.883890    12.978392    -3.041061    -8.070443    1.994075    2.145359    -6.539704    -42.703209    17.947327    -48.538666    -11.879584    -15.901202    -132.590607    2.409278    -40.162815    -6.593659    -6.508199    7.065278    7.745780    21.644836    16.188000    49.493675    -19.718262    -40.347862    -9.320564    17.673254    -37.816353    30.653479    -2.524135    -35.536568    -29.708637    -10.887781    24.163525    -24.126696    -9.889086    3.831517    27.920109    0.000000    0.000000    0.000000    4.943415    11.629354    -17.794531    2.806864    25.104197    -1.342957    -3.800253    -31.929153    -7.240981    0.000000    0.000000    0.000000    
-9.882825    150.718628    -10.783893    0.680833    1.262357    28.760948    -0.561324    2.902086    13.844427    -5.490081    -0.163019    4.602905    -0.334802    2.892967    -9.880848    12.940026    -3.037257    -8.075155    1.986883    2.144194    -6.528860    -42.691284    17.971817    -48.535805    -11.873446    -15.918747    -132.597519    2.381036    -40.167934    -6.624452    -6.582872    6.968079    7.792944    21.463633    15.797613    49.377758    -20.032927    -40.247368    -9.402647    18.102970    -37.626934    30.815298    -2.525188    -35.535934    -29.721708    -10.909924    24.246454    -24.100533    -9.821554    3.770943    27.892973    0.000000    0.000000    0.000000    4.955832    11.668457    -17.783121    2.808043    25.096775    -1.374379    -3.788795    -31.939829    -7.224227    0.000000    0.000000    0.000000    
-9.825891    150.698624    -10.754362    0.669506    1.232169    28.750017    -0.540343    2.889565    13.871169    -5.514619    -0.164203    4.611923    -0.320383    2.915769    -9.892798    12.914709    -3.058846    -8.091377    1.991595    2.140975    -6.541556    -42.677147    17.994150    -48.516136    -11.853040    -15.952508    -132.602707    2.395447    -40.160103    -6.628899    -6.651065    6.881171    7.828235    21.299101    15.311547    49.264294    -20.179718    -40.345310    -9.358496    17.650175    -37.828400    30.853344    -2.526907    -35.539368    -29.744682    -10.938616    24.350580    -24.039114    -9.766655    3.686692    27.846724    0.000000    0.000000    0.000000    4.965490    11.713820    -17.751154    2.818281    25.089527    -1.356064    -3.792120    -31.946150    -7.273014    0.000000    0.000000    0.000000    
-9.770462    150.680130    -10.721473    0.655753    1.201409    28.731979    -0.535907    2.878405    13.903409    -5.505498    -0.174382    4.622228    -0.332866    2.936864    -9.916118    12.897070    -3.070432    -8.115991    1.986337    2.149720    -6.553200    -42.680672    17.989677    -48.502407    -11.853977    -15.944873    -132.606293    2.372291    -40.157204    -6.662178    -6.720610    6.785086    7.857818    21.099293    14.904069    49.149704    -20.463953    -40.282074    -9.399698    17.891560    -37.718788    30.964531    -2.517760    -35.546444    -29.776844    -10.975863    24.446039    -24.002354    -9.724135    3.614806    27.836723    0.000000    0.000000    0.000000    4.983563    11.761446    -17.740789    2.805677    25.074966    -1.369080    -3.767448    -31.953810    -7.243524    0.000000    0.000000    0.000000    
-9.715079    150.660568    -10.688802    0.637715    1.173031    28.716789    -0.532272    2.861667    13.929577    -5.477050    -0.184216    4.630591    -0.367525    2.956014    -9.933635    12.875530    -3.075589    -8.133177    1.945322    2.146096    -6.566294    -42.678085    17.976320    -48.468590    -11.864133    -15.929046    -132.619110    2.387920    -40.170544    -6.640737    -6.819140    6.689824    7.884696    20.905416    14.482556    49.047508    -20.644793    -40.350243    -9.344238    17.557880    -37.861584    31.016874    -2.506487    -35.565815    -29.825249    -11.032887    24.554478    -23.946711    -9.680621    3.530679    27.843390    0.000000    0.000000    0.000000    5.002767    11.801763    -17.751673    2.782509    25.068296    -1.319199    -3.741302    -31.962675    -7.246574    0.000000    0.000000    0.000000    
-9.657271    150.645691    -10.659514    0.617793    1.151292    28.695095    -0.525197    2.848722    13.953207    -5.468170    -0.209409    4.637347    -0.399702    2.957758    -9.927707    12.886828    -3.053415    -8.123562    1.925387    2.147772    -6.563807    -42.682514    17.975271    -48.441010    -11.854935    -15.930231    -132.621902    2.361167    -40.154720    -6.645387    -6.896814    6.594149    7.911957    20.689207    14.077389    48.935551    -20.869411    -40.201015    -9.359488    17.812250    -37.642845    31.197124    -2.485639    -35.588978    -29.887039    -11.113875    24.641560    -23.822554    -9.627709    3.472796    27.807228    0.000000    0.000000    0.000000    5.016960    11.833493    -17.738859    2.768178    25.062103    -1.342942    -3.703292    -31.972301    -7.200006    0.000000    0.000000    0.000000    
-9.598131    150.628998    -10.626221    0.604904    1.124756    28.674923    -0.520928    2.834978    13.966281    -5.473001    -0.217526    4.641339    -0.401412    2.931057    -9.907036    12.880036    -3.017190    -8.106791    1.917794    2.138210    -6.551429    -42.697098    17.956869    -48.410229    -11.863505    -15.889308    -132.624435    2.348174    -40.139172    -6.662959    -6.958799    6.489017    7.954850    20.495667    13.583476    48.801044    -20.908598    -40.104855    -9.242976    17.608198    -37.567345    31.254843    -2.467605    -35.602097    -29.955048    -11.196677    24.729801    -23.723423    -9.574728    3.399895    27.793005    0.000000    0.000000    0.000000    5.029259    11.872820    -17.739014    2.750721    25.058060    -1.331928    -3.690051    -31.977537    -7.196084    0.000000    0.000000    0.000000    
-9.539425    150.616745    -10.598269    0.590258    1.104104    28.649847    -0.517925    2.830861    13.987447    -5.475222    -0.244788    4.647108    -0.430329    2.919662    -9.901050    12.908936    -2.986727    -8.095428    1.908425    2.148153    -6.544184    -42.716908    17.936840    -48.390110    -11.867370    -15.868600    -132.627930    2.324858    -40.131042    -6.686618    -7.026006    6.394543    7.978404    20.267151    13.194523    48.694283    -21.108696    -40.077778    -9.201992    17.604773    -37.522110    31.443893    -2.449773    -35.613758    -30.002251    -11.255992    24.807415    -23.631716    -9.537506    3.326302    27.759995    0.000000    0.000000    0.000000    5.033093    11.895451    -17.718050    2.744748    25.075583    -1.297807    -3.698980    -31.978497    -7.235723    0.000000    0.000000    0.000000    
-9.479599    150.603638    -10.569303    0.575937    1.087677    28.623281    -0.516621    2.815923    14.004999    -5.479290    -0.260592    4.652244    -0.436348    2.934760    -9.897027    12.918251    -3.011643    -8.086199    1.898348    2.161187    -6.530707    -42.721966    17.928980    -48.378521    -11.864026    -15.885501    -132.626587    2.262650    -40.135159    -6.724812    -7.087959    6.283704    8.018077    20.043144    12.827010    48.577202    -21.322187    -39.973038    -9.170139    17.686558    -37.381672    31.611851    -2.434885    -35.629307    -30.079330    -11.337469    24.880976    -23.510166    -9.491878    3.257706    27.750177    0.000000    0.000000    0.000000    5.033005    11.919391    -17.677895    2.754986    25.079851    -1.297870    -3.709596    -31.974007    -7.258448    0.000000    0.000000    0.000000    
